<mxfile host="app.diagrams.net" modified="2023-06-13T06:09:52.971Z" agent="Mozilla/5.0 (Windows NT 10.0; Win64; x64) AppleWebKit/537.36 (KHTML, like Gecko) Chrome/113.0.0.0 Safari/537.36 Edg/113.0.1774.50" etag="Qc3D_Zei6erMrfqlVsqQ" version="21.3.8" type="github">
  <diagram name="第 1 页" id="YIn_uhQUMOQouuP-fO4L">
    <mxGraphModel dx="1379" dy="796" grid="0" gridSize="10" guides="1" tooltips="1" connect="1" arrows="1" fold="1" page="1" pageScale="1" pageWidth="1600" pageHeight="1200" math="0" shadow="0">
      <root>
        <mxCell id="0" />
        <mxCell id="1" parent="0" />
        <mxCell id="_0MbpPXeVxMI2bIG-4Vy-49" value="" style="group;align=center;verticalAlign=middle;labelPosition=center;verticalLabelPosition=middle;rounded=1;labelBackgroundColor=none;fontColor=#143642;" vertex="1" connectable="0" parent="1">
          <mxGeometry x="233" y="913" width="94" height="42" as="geometry" />
        </mxCell>
        <mxCell id="_0MbpPXeVxMI2bIG-4Vy-50" value="" style="rounded=1;whiteSpace=wrap;html=1;align=center;verticalAlign=middle;labelPosition=center;verticalLabelPosition=middle;labelBackgroundColor=none;fillColor=#FAE5C7;strokeColor=#0F8B8D;fontColor=#143642;" vertex="1" parent="_0MbpPXeVxMI2bIG-4Vy-49">
          <mxGeometry width="94" height="42" as="geometry" />
        </mxCell>
        <mxCell id="_0MbpPXeVxMI2bIG-4Vy-51" value="申请回款" style="text;strokeColor=none;align=center;fillColor=none;html=1;verticalAlign=middle;whiteSpace=wrap;rounded=1;fontSize=14;labelPosition=center;verticalLabelPosition=middle;labelBackgroundColor=none;fontColor=#143642;" vertex="1" parent="_0MbpPXeVxMI2bIG-4Vy-49">
          <mxGeometry x="19" y="6" width="60" height="30" as="geometry" />
        </mxCell>
        <mxCell id="_0MbpPXeVxMI2bIG-4Vy-52" value="" style="group;align=center;verticalAlign=middle;labelPosition=center;verticalLabelPosition=middle;rounded=1;labelBackgroundColor=none;fontColor=#143642;" vertex="1" connectable="0" parent="1">
          <mxGeometry x="379" y="913" width="94" height="42" as="geometry" />
        </mxCell>
        <mxCell id="_0MbpPXeVxMI2bIG-4Vy-53" value="" style="rounded=1;whiteSpace=wrap;html=1;align=center;verticalAlign=middle;labelPosition=center;verticalLabelPosition=middle;labelBackgroundColor=none;fillColor=#FAE5C7;strokeColor=#0F8B8D;fontColor=#143642;" vertex="1" parent="_0MbpPXeVxMI2bIG-4Vy-52">
          <mxGeometry width="94" height="42" as="geometry" />
        </mxCell>
        <mxCell id="_0MbpPXeVxMI2bIG-4Vy-54" value="结算" style="text;strokeColor=none;align=center;fillColor=none;html=1;verticalAlign=middle;whiteSpace=wrap;rounded=1;fontSize=14;labelPosition=center;verticalLabelPosition=middle;labelBackgroundColor=none;fontColor=#143642;" vertex="1" parent="_0MbpPXeVxMI2bIG-4Vy-52">
          <mxGeometry x="19" y="6" width="60" height="30" as="geometry" />
        </mxCell>
        <mxCell id="_0MbpPXeVxMI2bIG-4Vy-55" value="" style="group;align=center;verticalAlign=middle;labelPosition=center;verticalLabelPosition=middle;rounded=1;labelBackgroundColor=none;fontColor=#143642;" vertex="1" connectable="0" parent="1">
          <mxGeometry x="530" y="913" width="94" height="42" as="geometry" />
        </mxCell>
        <mxCell id="_0MbpPXeVxMI2bIG-4Vy-56" value="" style="rounded=1;whiteSpace=wrap;html=1;align=center;verticalAlign=middle;labelPosition=center;verticalLabelPosition=middle;labelBackgroundColor=none;fillColor=#FAE5C7;strokeColor=#0F8B8D;fontColor=#143642;" vertex="1" parent="_0MbpPXeVxMI2bIG-4Vy-55">
          <mxGeometry width="94" height="42" as="geometry" />
        </mxCell>
        <mxCell id="_0MbpPXeVxMI2bIG-4Vy-57" value="签约" style="text;strokeColor=none;align=center;fillColor=none;html=1;verticalAlign=middle;whiteSpace=wrap;rounded=1;fontSize=14;labelPosition=center;verticalLabelPosition=middle;labelBackgroundColor=none;fontColor=#143642;" vertex="1" parent="_0MbpPXeVxMI2bIG-4Vy-55">
          <mxGeometry x="19" y="6" width="60" height="30" as="geometry" />
        </mxCell>
        <mxCell id="_0MbpPXeVxMI2bIG-4Vy-58" value="" style="group;align=center;verticalAlign=middle;labelPosition=center;verticalLabelPosition=middle;rounded=1;labelBackgroundColor=none;fontColor=#143642;" vertex="1" connectable="0" parent="1">
          <mxGeometry x="676" y="913" width="94" height="42" as="geometry" />
        </mxCell>
        <mxCell id="_0MbpPXeVxMI2bIG-4Vy-59" value="" style="rounded=1;whiteSpace=wrap;html=1;align=center;verticalAlign=middle;labelPosition=center;verticalLabelPosition=middle;labelBackgroundColor=none;fillColor=#FAE5C7;strokeColor=#0F8B8D;fontColor=#143642;" vertex="1" parent="_0MbpPXeVxMI2bIG-4Vy-58">
          <mxGeometry width="94" height="42" as="geometry" />
        </mxCell>
        <mxCell id="_0MbpPXeVxMI2bIG-4Vy-60" value="付款" style="text;strokeColor=none;align=center;fillColor=none;html=1;verticalAlign=middle;whiteSpace=wrap;rounded=1;fontSize=14;labelPosition=center;verticalLabelPosition=middle;labelBackgroundColor=none;fontColor=#143642;" vertex="1" parent="_0MbpPXeVxMI2bIG-4Vy-58">
          <mxGeometry x="19" y="6" width="60" height="30" as="geometry" />
        </mxCell>
        <mxCell id="_0MbpPXeVxMI2bIG-4Vy-62" value="" style="group;align=center;verticalAlign=middle;labelPosition=center;verticalLabelPosition=middle;rounded=1;labelBackgroundColor=none;fontColor=#143642;" vertex="1" connectable="0" parent="1">
          <mxGeometry x="820" y="913" width="94" height="42" as="geometry" />
        </mxCell>
        <mxCell id="_0MbpPXeVxMI2bIG-4Vy-145" style="edgeStyle=orthogonalEdgeStyle;rounded=0;orthogonalLoop=1;jettySize=auto;html=1;exitX=1;exitY=0.5;exitDx=0;exitDy=0;strokeColor=#A8201A;fontColor=#143642;fillColor=#FAE5C7;" edge="1" parent="_0MbpPXeVxMI2bIG-4Vy-62" source="_0MbpPXeVxMI2bIG-4Vy-63">
          <mxGeometry relative="1" as="geometry">
            <mxPoint x="145.4853515625" y="21" as="targetPoint" />
          </mxGeometry>
        </mxCell>
        <mxCell id="_0MbpPXeVxMI2bIG-4Vy-63" value="" style="rounded=1;whiteSpace=wrap;html=1;align=center;verticalAlign=middle;labelPosition=center;verticalLabelPosition=middle;labelBackgroundColor=none;fillColor=#FAE5C7;strokeColor=#0F8B8D;fontColor=#143642;" vertex="1" parent="_0MbpPXeVxMI2bIG-4Vy-62">
          <mxGeometry width="94" height="42" as="geometry" />
        </mxCell>
        <mxCell id="_0MbpPXeVxMI2bIG-4Vy-64" value="提车申请" style="text;strokeColor=none;align=center;fillColor=none;html=1;verticalAlign=middle;whiteSpace=wrap;rounded=1;fontSize=14;labelPosition=center;verticalLabelPosition=middle;labelBackgroundColor=none;fontColor=#143642;" vertex="1" parent="_0MbpPXeVxMI2bIG-4Vy-62">
          <mxGeometry x="19" y="6" width="60" height="30" as="geometry" />
        </mxCell>
        <mxCell id="_0MbpPXeVxMI2bIG-4Vy-65" value="" style="group;align=center;verticalAlign=middle;labelPosition=center;verticalLabelPosition=middle;rounded=1;labelBackgroundColor=none;fontColor=#143642;" vertex="1" connectable="0" parent="1">
          <mxGeometry x="967" y="913" width="94" height="42" as="geometry" />
        </mxCell>
        <mxCell id="_0MbpPXeVxMI2bIG-4Vy-66" value="" style="rounded=1;whiteSpace=wrap;html=1;align=center;verticalAlign=middle;labelPosition=center;verticalLabelPosition=middle;labelBackgroundColor=none;fillColor=#FAE5C7;strokeColor=#0F8B8D;fontColor=#143642;" vertex="1" parent="_0MbpPXeVxMI2bIG-4Vy-65">
          <mxGeometry width="94" height="42" as="geometry" />
        </mxCell>
        <mxCell id="_0MbpPXeVxMI2bIG-4Vy-67" value="出库" style="text;strokeColor=none;align=center;fillColor=none;html=1;verticalAlign=middle;whiteSpace=wrap;rounded=1;fontSize=14;labelPosition=center;verticalLabelPosition=middle;labelBackgroundColor=none;fontColor=#143642;" vertex="1" parent="_0MbpPXeVxMI2bIG-4Vy-65">
          <mxGeometry x="19" y="6" width="60" height="30" as="geometry" />
        </mxCell>
        <mxCell id="_0MbpPXeVxMI2bIG-4Vy-70" value="" style="group;align=center;verticalAlign=middle;labelPosition=center;verticalLabelPosition=middle;rounded=1;labelBackgroundColor=none;fontColor=#143642;" vertex="1" connectable="0" parent="1">
          <mxGeometry x="86" y="308" width="94" height="42" as="geometry" />
        </mxCell>
        <mxCell id="_0MbpPXeVxMI2bIG-4Vy-71" value="" style="rounded=1;whiteSpace=wrap;html=1;align=center;verticalAlign=middle;labelPosition=center;verticalLabelPosition=middle;labelBackgroundColor=none;fillColor=#FAE5C7;strokeColor=#0F8B8D;fontColor=#143642;" vertex="1" parent="_0MbpPXeVxMI2bIG-4Vy-70">
          <mxGeometry width="94" height="42" as="geometry" />
        </mxCell>
        <mxCell id="_0MbpPXeVxMI2bIG-4Vy-72" value="库融申请" style="text;strokeColor=none;align=center;fillColor=none;html=1;verticalAlign=middle;whiteSpace=wrap;rounded=1;fontSize=14;labelPosition=center;verticalLabelPosition=middle;labelBackgroundColor=none;fontColor=#143642;" vertex="1" parent="_0MbpPXeVxMI2bIG-4Vy-70">
          <mxGeometry x="17" y="6" width="60" height="30" as="geometry" />
        </mxCell>
        <mxCell id="_0MbpPXeVxMI2bIG-4Vy-76" value="" style="group;labelBackgroundColor=none;fontColor=#143642;" vertex="1" connectable="0" parent="1">
          <mxGeometry x="227" y="308" width="94" height="42" as="geometry" />
        </mxCell>
        <mxCell id="_0MbpPXeVxMI2bIG-4Vy-74" value="" style="rounded=1;whiteSpace=wrap;html=1;align=center;verticalAlign=middle;labelPosition=center;verticalLabelPosition=middle;container=0;labelBackgroundColor=none;fillColor=#FAE5C7;strokeColor=#0F8B8D;fontColor=#143642;" vertex="1" parent="_0MbpPXeVxMI2bIG-4Vy-76">
          <mxGeometry width="94" height="42" as="geometry" />
        </mxCell>
        <mxCell id="_0MbpPXeVxMI2bIG-4Vy-75" value="车300验车" style="text;strokeColor=none;align=center;fillColor=none;html=1;verticalAlign=middle;whiteSpace=wrap;rounded=1;fontSize=14;labelPosition=center;verticalLabelPosition=middle;container=0;labelBackgroundColor=none;fontColor=#143642;" vertex="1" parent="_0MbpPXeVxMI2bIG-4Vy-76">
          <mxGeometry x="13" y="6" width="70" height="30" as="geometry" />
        </mxCell>
        <mxCell id="_0MbpPXeVxMI2bIG-4Vy-77" value="" style="group;labelBackgroundColor=none;fontColor=#143642;" vertex="1" connectable="0" parent="1">
          <mxGeometry x="373" y="308" width="94" height="42" as="geometry" />
        </mxCell>
        <mxCell id="_0MbpPXeVxMI2bIG-4Vy-78" value="" style="rounded=1;whiteSpace=wrap;html=1;align=center;verticalAlign=middle;labelPosition=center;verticalLabelPosition=middle;container=0;labelBackgroundColor=none;fillColor=#FAE5C7;strokeColor=#0F8B8D;fontColor=#143642;" vertex="1" parent="_0MbpPXeVxMI2bIG-4Vy-77">
          <mxGeometry width="94" height="42" as="geometry" />
        </mxCell>
        <mxCell id="_0MbpPXeVxMI2bIG-4Vy-79" value="平台审核" style="text;strokeColor=none;align=center;fillColor=none;html=1;verticalAlign=middle;whiteSpace=wrap;rounded=1;fontSize=14;labelPosition=center;verticalLabelPosition=middle;container=0;labelBackgroundColor=none;fontColor=#143642;" vertex="1" parent="_0MbpPXeVxMI2bIG-4Vy-77">
          <mxGeometry x="13" y="6" width="70" height="30" as="geometry" />
        </mxCell>
        <mxCell id="_0MbpPXeVxMI2bIG-4Vy-80" value="" style="group;labelBackgroundColor=none;fontColor=#143642;" vertex="1" connectable="0" parent="1">
          <mxGeometry x="523" y="308" width="94" height="42" as="geometry" />
        </mxCell>
        <mxCell id="_0MbpPXeVxMI2bIG-4Vy-81" value="" style="rounded=1;whiteSpace=wrap;html=1;align=center;verticalAlign=middle;labelPosition=center;verticalLabelPosition=middle;container=0;labelBackgroundColor=none;fillColor=#FAE5C7;strokeColor=#0F8B8D;fontColor=#143642;" vertex="1" parent="_0MbpPXeVxMI2bIG-4Vy-80">
          <mxGeometry width="94" height="42" as="geometry" />
        </mxCell>
        <mxCell id="_0MbpPXeVxMI2bIG-4Vy-82" value="入库" style="text;strokeColor=none;align=center;fillColor=none;html=1;verticalAlign=middle;whiteSpace=wrap;rounded=1;fontSize=14;labelPosition=center;verticalLabelPosition=middle;container=0;labelBackgroundColor=none;fontColor=#143642;" vertex="1" parent="_0MbpPXeVxMI2bIG-4Vy-80">
          <mxGeometry x="13" y="6" width="70" height="30" as="geometry" />
        </mxCell>
        <mxCell id="_0MbpPXeVxMI2bIG-4Vy-83" value="" style="group;labelBackgroundColor=none;fontColor=#143642;" vertex="1" connectable="0" parent="1">
          <mxGeometry x="668" y="308" width="94" height="42" as="geometry" />
        </mxCell>
        <mxCell id="_0MbpPXeVxMI2bIG-4Vy-84" value="" style="rounded=1;whiteSpace=wrap;html=1;align=center;verticalAlign=middle;labelPosition=center;verticalLabelPosition=middle;container=0;labelBackgroundColor=none;fillColor=#FAE5C7;strokeColor=#0F8B8D;fontColor=#143642;" vertex="1" parent="_0MbpPXeVxMI2bIG-4Vy-83">
          <mxGeometry width="94" height="42" as="geometry" />
        </mxCell>
        <mxCell id="_0MbpPXeVxMI2bIG-4Vy-85" value="放款" style="text;strokeColor=none;align=center;fillColor=none;html=1;verticalAlign=middle;whiteSpace=wrap;rounded=1;fontSize=14;labelPosition=center;verticalLabelPosition=middle;container=0;labelBackgroundColor=none;fontColor=#143642;" vertex="1" parent="_0MbpPXeVxMI2bIG-4Vy-83">
          <mxGeometry x="11" y="6" width="70" height="30" as="geometry" />
        </mxCell>
        <mxCell id="_0MbpPXeVxMI2bIG-4Vy-86" value="" style="group;align=center;verticalAlign=middle;labelPosition=center;verticalLabelPosition=middle;rounded=1;labelBackgroundColor=none;fontColor=#143642;" vertex="1" connectable="0" parent="1">
          <mxGeometry x="88" y="457" width="94" height="42" as="geometry" />
        </mxCell>
        <mxCell id="_0MbpPXeVxMI2bIG-4Vy-87" value="" style="rounded=1;whiteSpace=wrap;html=1;align=center;verticalAlign=middle;labelPosition=center;verticalLabelPosition=middle;labelBackgroundColor=none;fillColor=#FAE5C7;strokeColor=#0F8B8D;fontColor=#143642;" vertex="1" parent="_0MbpPXeVxMI2bIG-4Vy-86">
          <mxGeometry width="94" height="42" as="geometry" />
        </mxCell>
        <mxCell id="_0MbpPXeVxMI2bIG-4Vy-88" value="申请回款" style="text;strokeColor=none;align=center;fillColor=none;html=1;verticalAlign=middle;whiteSpace=wrap;rounded=1;fontSize=14;labelPosition=center;verticalLabelPosition=middle;labelBackgroundColor=none;fontColor=#143642;" vertex="1" parent="_0MbpPXeVxMI2bIG-4Vy-86">
          <mxGeometry x="19" y="6" width="60" height="30" as="geometry" />
        </mxCell>
        <mxCell id="_0MbpPXeVxMI2bIG-4Vy-93" value="" style="group;align=center;verticalAlign=middle;labelPosition=center;verticalLabelPosition=middle;rounded=1;labelBackgroundColor=none;fontColor=#143642;" vertex="1" connectable="0" parent="1">
          <mxGeometry x="372" y="457" width="94" height="42" as="geometry" />
        </mxCell>
        <mxCell id="_0MbpPXeVxMI2bIG-4Vy-94" value="" style="rounded=1;whiteSpace=wrap;html=1;align=center;verticalAlign=middle;labelPosition=center;verticalLabelPosition=middle;labelBackgroundColor=none;fillColor=#FAE5C7;strokeColor=#0F8B8D;fontColor=#143642;" vertex="1" parent="_0MbpPXeVxMI2bIG-4Vy-93">
          <mxGeometry width="94" height="42" as="geometry" />
        </mxCell>
        <mxCell id="_0MbpPXeVxMI2bIG-4Vy-95" value="提车申请" style="text;strokeColor=none;align=center;fillColor=none;html=1;verticalAlign=middle;whiteSpace=wrap;rounded=1;fontSize=14;labelPosition=center;verticalLabelPosition=middle;labelBackgroundColor=none;fontColor=#143642;" vertex="1" parent="_0MbpPXeVxMI2bIG-4Vy-93">
          <mxGeometry x="19" y="6" width="60" height="30" as="geometry" />
        </mxCell>
        <mxCell id="_0MbpPXeVxMI2bIG-4Vy-98" value="" style="group;align=center;verticalAlign=middle;labelPosition=center;verticalLabelPosition=middle;rounded=1;labelBackgroundColor=none;fontColor=#143642;" vertex="1" connectable="0" parent="1">
          <mxGeometry x="518" y="457" width="94" height="42" as="geometry" />
        </mxCell>
        <mxCell id="_0MbpPXeVxMI2bIG-4Vy-99" value="" style="rounded=1;whiteSpace=wrap;html=1;align=center;verticalAlign=middle;labelPosition=center;verticalLabelPosition=middle;labelBackgroundColor=none;fillColor=#FAE5C7;strokeColor=#0F8B8D;fontColor=#143642;" vertex="1" parent="_0MbpPXeVxMI2bIG-4Vy-98">
          <mxGeometry width="94" height="42" as="geometry" />
        </mxCell>
        <mxCell id="_0MbpPXeVxMI2bIG-4Vy-100" value="出库" style="text;strokeColor=none;align=center;fillColor=none;html=1;verticalAlign=middle;whiteSpace=wrap;rounded=1;fontSize=14;labelPosition=center;verticalLabelPosition=middle;labelBackgroundColor=none;fontColor=#143642;" vertex="1" parent="_0MbpPXeVxMI2bIG-4Vy-98">
          <mxGeometry x="19" y="6" width="60" height="30" as="geometry" />
        </mxCell>
        <mxCell id="_0MbpPXeVxMI2bIG-4Vy-101" value="" style="group;align=center;verticalAlign=middle;labelPosition=center;verticalLabelPosition=middle;rounded=1;labelBackgroundColor=none;fontColor=#143642;" vertex="1" connectable="0" parent="1">
          <mxGeometry x="228" y="457" width="94" height="42" as="geometry" />
        </mxCell>
        <mxCell id="_0MbpPXeVxMI2bIG-4Vy-102" value="" style="rounded=1;whiteSpace=wrap;html=1;align=center;verticalAlign=middle;labelPosition=center;verticalLabelPosition=middle;labelBackgroundColor=none;fillColor=#FAE5C7;strokeColor=#0F8B8D;fontColor=#143642;" vertex="1" parent="_0MbpPXeVxMI2bIG-4Vy-101">
          <mxGeometry width="94" height="42" as="geometry" />
        </mxCell>
        <mxCell id="_0MbpPXeVxMI2bIG-4Vy-103" value="确认还款" style="text;strokeColor=none;align=center;fillColor=none;html=1;verticalAlign=middle;whiteSpace=wrap;rounded=1;fontSize=14;labelPosition=center;verticalLabelPosition=middle;labelBackgroundColor=none;fontColor=#143642;" vertex="1" parent="_0MbpPXeVxMI2bIG-4Vy-101">
          <mxGeometry x="19" y="6" width="60" height="30" as="geometry" />
        </mxCell>
        <mxCell id="_0MbpPXeVxMI2bIG-4Vy-124" value="" style="group" vertex="1" connectable="0" parent="1">
          <mxGeometry x="159" y="707.5" width="1080" height="43" as="geometry" />
        </mxCell>
        <mxCell id="_0MbpPXeVxMI2bIG-4Vy-1" value="" style="rounded=1;whiteSpace=wrap;html=1;align=center;verticalAlign=middle;labelPosition=center;verticalLabelPosition=middle;labelBackgroundColor=none;fillColor=#FAE5C7;strokeColor=#0F8B8D;fontColor=#143642;container=0;" vertex="1" parent="_0MbpPXeVxMI2bIG-4Vy-124">
          <mxGeometry y="0.5" width="94" height="42" as="geometry" />
        </mxCell>
        <mxCell id="_0MbpPXeVxMI2bIG-4Vy-2" value="采购开单" style="text;strokeColor=none;align=center;fillColor=none;html=1;verticalAlign=middle;whiteSpace=wrap;rounded=1;fontSize=14;labelPosition=center;verticalLabelPosition=middle;labelBackgroundColor=none;fontColor=#143642;container=0;" vertex="1" parent="_0MbpPXeVxMI2bIG-4Vy-124">
          <mxGeometry x="18" y="6" width="60" height="30" as="geometry" />
        </mxCell>
        <mxCell id="_0MbpPXeVxMI2bIG-4Vy-125" value="" style="group" vertex="1" connectable="0" parent="_0MbpPXeVxMI2bIG-4Vy-124">
          <mxGeometry x="141" y="-0.5" width="939" height="43" as="geometry" />
        </mxCell>
        <mxCell id="_0MbpPXeVxMI2bIG-4Vy-32" value="" style="rounded=1;whiteSpace=wrap;html=1;shadow=0;align=center;verticalAlign=middle;labelPosition=center;verticalLabelPosition=middle;labelBackgroundColor=none;fillColor=#FAE5C7;strokeColor=#0F8B8D;fontColor=#143642;container=0;" vertex="1" parent="_0MbpPXeVxMI2bIG-4Vy-125">
          <mxGeometry x="845" y="0.5" width="94" height="42" as="geometry" />
        </mxCell>
        <mxCell id="_0MbpPXeVxMI2bIG-4Vy-33" value="&lt;span style=&quot;font-size: 14px;&quot;&gt;入库&lt;/span&gt;" style="text;strokeColor=none;align=center;fillColor=none;html=1;verticalAlign=middle;whiteSpace=wrap;rounded=1;labelPosition=center;verticalLabelPosition=middle;labelBackgroundColor=none;fontColor=#143642;container=0;" vertex="1" parent="_0MbpPXeVxMI2bIG-4Vy-125">
          <mxGeometry x="860" y="6.5" width="60" height="30" as="geometry" />
        </mxCell>
        <mxCell id="_0MbpPXeVxMI2bIG-4Vy-123" style="edgeStyle=orthogonalEdgeStyle;rounded=0;orthogonalLoop=1;jettySize=auto;html=1;strokeColor=#A8201A;fontColor=#143642;fillColor=#FAE5C7;" edge="1" parent="_0MbpPXeVxMI2bIG-4Vy-125" source="_0MbpPXeVxMI2bIG-4Vy-28">
          <mxGeometry relative="1" as="geometry">
            <mxPoint x="846" y="21" as="targetPoint" />
          </mxGeometry>
        </mxCell>
        <mxCell id="_0MbpPXeVxMI2bIG-4Vy-28" value="" style="rounded=1;whiteSpace=wrap;html=1;shadow=0;align=center;verticalAlign=middle;labelPosition=center;verticalLabelPosition=middle;labelBackgroundColor=none;fillColor=#FAE5C7;strokeColor=#0F8B8D;fontColor=#143642;container=0;" vertex="1" parent="_0MbpPXeVxMI2bIG-4Vy-125">
          <mxGeometry x="709" y="0.5" width="94" height="42" as="geometry" />
        </mxCell>
        <mxCell id="_0MbpPXeVxMI2bIG-4Vy-29" value="&lt;span style=&quot;font-size: 14px;&quot;&gt;预约入库&lt;/span&gt;" style="text;strokeColor=none;align=center;fillColor=none;html=1;verticalAlign=middle;whiteSpace=wrap;rounded=1;labelPosition=center;verticalLabelPosition=middle;labelBackgroundColor=none;fontColor=#143642;container=0;" vertex="1" parent="_0MbpPXeVxMI2bIG-4Vy-125">
          <mxGeometry x="725" y="6.5" width="60" height="30" as="geometry" />
        </mxCell>
        <mxCell id="_0MbpPXeVxMI2bIG-4Vy-23" value="" style="rounded=1;whiteSpace=wrap;html=1;shadow=0;align=center;verticalAlign=middle;labelPosition=center;verticalLabelPosition=middle;labelBackgroundColor=none;fillColor=#FAE5C7;strokeColor=#0F8B8D;fontColor=#143642;container=0;" vertex="1" parent="_0MbpPXeVxMI2bIG-4Vy-125">
          <mxGeometry x="565" y="0.5" width="94" height="42" as="geometry" />
        </mxCell>
        <mxCell id="_0MbpPXeVxMI2bIG-4Vy-122" style="edgeStyle=orthogonalEdgeStyle;rounded=0;orthogonalLoop=1;jettySize=auto;html=1;strokeColor=#A8201A;fontColor=#143642;fillColor=#FAE5C7;" edge="1" parent="_0MbpPXeVxMI2bIG-4Vy-125" source="_0MbpPXeVxMI2bIG-4Vy-23" target="_0MbpPXeVxMI2bIG-4Vy-28">
          <mxGeometry relative="1" as="geometry" />
        </mxCell>
        <mxCell id="_0MbpPXeVxMI2bIG-4Vy-24" value="&lt;span style=&quot;font-size: 14px;&quot;&gt;支付上游&lt;/span&gt;" style="text;strokeColor=none;align=center;fillColor=none;html=1;verticalAlign=middle;whiteSpace=wrap;rounded=1;labelPosition=center;verticalLabelPosition=middle;labelBackgroundColor=none;fontColor=#143642;container=0;" vertex="1" parent="_0MbpPXeVxMI2bIG-4Vy-125">
          <mxGeometry x="581" y="6.5" width="60" height="30" as="geometry" />
        </mxCell>
        <mxCell id="_0MbpPXeVxMI2bIG-4Vy-3" value="" style="rounded=1;whiteSpace=wrap;html=1;shadow=0;align=center;verticalAlign=middle;labelPosition=center;verticalLabelPosition=middle;labelBackgroundColor=none;fillColor=#FAE5C7;strokeColor=#0F8B8D;fontColor=#143642;container=0;" vertex="1" parent="_0MbpPXeVxMI2bIG-4Vy-125">
          <mxGeometry y="0.5" width="94" height="42" as="geometry" />
        </mxCell>
        <mxCell id="_0MbpPXeVxMI2bIG-4Vy-111" style="edgeStyle=orthogonalEdgeStyle;rounded=0;orthogonalLoop=1;jettySize=auto;html=1;exitX=1;exitY=0.5;exitDx=0;exitDy=0;entryX=0;entryY=0.5;entryDx=0;entryDy=0;strokeColor=#A8201A;fontColor=#143642;fillColor=#FAE5C7;" edge="1" parent="_0MbpPXeVxMI2bIG-4Vy-125" source="_0MbpPXeVxMI2bIG-4Vy-1" target="_0MbpPXeVxMI2bIG-4Vy-3">
          <mxGeometry relative="1" as="geometry" />
        </mxCell>
        <mxCell id="_0MbpPXeVxMI2bIG-4Vy-5" value="&lt;font style=&quot;font-size: 14px;&quot;&gt;付款&lt;/font&gt;" style="text;strokeColor=none;align=center;fillColor=none;html=1;verticalAlign=middle;whiteSpace=wrap;rounded=1;labelPosition=center;verticalLabelPosition=middle;labelBackgroundColor=none;fontColor=#143642;container=0;" vertex="1" parent="_0MbpPXeVxMI2bIG-4Vy-125">
          <mxGeometry x="16" y="6.5" width="60" height="30" as="geometry" />
        </mxCell>
        <mxCell id="_0MbpPXeVxMI2bIG-4Vy-9" value="" style="rounded=1;whiteSpace=wrap;html=1;shadow=0;align=center;verticalAlign=middle;labelPosition=center;verticalLabelPosition=middle;labelBackgroundColor=none;fillColor=#FAE5C7;strokeColor=#0F8B8D;fontColor=#143642;container=0;" vertex="1" parent="_0MbpPXeVxMI2bIG-4Vy-125">
          <mxGeometry x="140" y="0.5" width="94" height="42" as="geometry" />
        </mxCell>
        <mxCell id="_0MbpPXeVxMI2bIG-4Vy-112" style="edgeStyle=orthogonalEdgeStyle;rounded=0;orthogonalLoop=1;jettySize=auto;html=1;exitX=1;exitY=0.5;exitDx=0;exitDy=0;entryX=0;entryY=0.5;entryDx=0;entryDy=0;strokeColor=#A8201A;fontColor=#143642;fillColor=#FAE5C7;" edge="1" parent="_0MbpPXeVxMI2bIG-4Vy-125" source="_0MbpPXeVxMI2bIG-4Vy-3" target="_0MbpPXeVxMI2bIG-4Vy-9">
          <mxGeometry relative="1" as="geometry" />
        </mxCell>
        <mxCell id="_0MbpPXeVxMI2bIG-4Vy-10" value="&lt;span style=&quot;font-size: 14px;&quot;&gt;签约&lt;/span&gt;" style="text;strokeColor=none;align=center;fillColor=none;html=1;verticalAlign=middle;whiteSpace=wrap;rounded=1;labelPosition=center;verticalLabelPosition=middle;labelBackgroundColor=none;fontColor=#143642;container=0;" vertex="1" parent="_0MbpPXeVxMI2bIG-4Vy-125">
          <mxGeometry x="157" y="6.5" width="60" height="30" as="geometry" />
        </mxCell>
        <mxCell id="_0MbpPXeVxMI2bIG-4Vy-13" value="" style="rounded=1;whiteSpace=wrap;html=1;shadow=0;align=center;verticalAlign=middle;labelPosition=center;verticalLabelPosition=middle;labelBackgroundColor=none;fillColor=#FAE5C7;strokeColor=#0F8B8D;fontColor=#143642;container=0;" vertex="1" parent="_0MbpPXeVxMI2bIG-4Vy-125">
          <mxGeometry x="276" y="0.5" width="94" height="42" as="geometry" />
        </mxCell>
        <mxCell id="_0MbpPXeVxMI2bIG-4Vy-113" style="edgeStyle=orthogonalEdgeStyle;rounded=0;orthogonalLoop=1;jettySize=auto;html=1;exitX=1;exitY=0.5;exitDx=0;exitDy=0;entryX=0;entryY=0.5;entryDx=0;entryDy=0;strokeColor=#A8201A;fontColor=#143642;fillColor=#FAE5C7;" edge="1" parent="_0MbpPXeVxMI2bIG-4Vy-125" source="_0MbpPXeVxMI2bIG-4Vy-9" target="_0MbpPXeVxMI2bIG-4Vy-13">
          <mxGeometry relative="1" as="geometry" />
        </mxCell>
        <mxCell id="_0MbpPXeVxMI2bIG-4Vy-14" value="&lt;span style=&quot;font-size: 14px;&quot;&gt;线下验车&lt;/span&gt;" style="text;strokeColor=none;align=center;fillColor=none;html=1;verticalAlign=middle;whiteSpace=wrap;rounded=1;labelPosition=center;verticalLabelPosition=middle;labelBackgroundColor=none;fontColor=#143642;container=0;" vertex="1" parent="_0MbpPXeVxMI2bIG-4Vy-125">
          <mxGeometry x="293" y="6.5" width="60" height="30" as="geometry" />
        </mxCell>
        <mxCell id="_0MbpPXeVxMI2bIG-4Vy-16" value="" style="rounded=1;whiteSpace=wrap;html=1;shadow=0;align=center;verticalAlign=middle;labelPosition=center;verticalLabelPosition=middle;labelBackgroundColor=none;fillColor=#FAE5C7;strokeColor=#0F8B8D;fontColor=#143642;container=0;" vertex="1" parent="_0MbpPXeVxMI2bIG-4Vy-125">
          <mxGeometry x="424" y="0.5" width="94" height="42" as="geometry" />
        </mxCell>
        <mxCell id="_0MbpPXeVxMI2bIG-4Vy-121" style="edgeStyle=orthogonalEdgeStyle;rounded=0;orthogonalLoop=1;jettySize=auto;html=1;entryX=0;entryY=0.5;entryDx=0;entryDy=0;strokeColor=#A8201A;fontColor=#143642;fillColor=#FAE5C7;" edge="1" parent="_0MbpPXeVxMI2bIG-4Vy-125" source="_0MbpPXeVxMI2bIG-4Vy-16" target="_0MbpPXeVxMI2bIG-4Vy-23">
          <mxGeometry relative="1" as="geometry" />
        </mxCell>
        <mxCell id="_0MbpPXeVxMI2bIG-4Vy-118" style="edgeStyle=orthogonalEdgeStyle;rounded=0;orthogonalLoop=1;jettySize=auto;html=1;entryX=0;entryY=0.5;entryDx=0;entryDy=0;strokeColor=#A8201A;fontColor=#143642;fillColor=#FAE5C7;" edge="1" parent="_0MbpPXeVxMI2bIG-4Vy-125" source="_0MbpPXeVxMI2bIG-4Vy-13" target="_0MbpPXeVxMI2bIG-4Vy-16">
          <mxGeometry relative="1" as="geometry" />
        </mxCell>
        <mxCell id="_0MbpPXeVxMI2bIG-4Vy-17" value="&lt;span style=&quot;font-size: 14px;&quot;&gt;平台验车&lt;/span&gt;" style="text;strokeColor=none;align=center;fillColor=none;html=1;verticalAlign=middle;whiteSpace=wrap;rounded=1;labelPosition=center;verticalLabelPosition=middle;labelBackgroundColor=none;fontColor=#143642;container=0;" vertex="1" parent="_0MbpPXeVxMI2bIG-4Vy-125">
          <mxGeometry x="441" y="6.5" width="60" height="30" as="geometry" />
        </mxCell>
        <mxCell id="_0MbpPXeVxMI2bIG-4Vy-142" style="edgeStyle=orthogonalEdgeStyle;rounded=0;orthogonalLoop=1;jettySize=auto;html=1;exitX=1;exitY=0.5;exitDx=0;exitDy=0;entryX=0;entryY=0.5;entryDx=0;entryDy=0;strokeColor=#A8201A;fontColor=#143642;fillColor=#FAE5C7;" edge="1" parent="1" source="_0MbpPXeVxMI2bIG-4Vy-53" target="_0MbpPXeVxMI2bIG-4Vy-56">
          <mxGeometry relative="1" as="geometry" />
        </mxCell>
        <mxCell id="_0MbpPXeVxMI2bIG-4Vy-143" style="edgeStyle=orthogonalEdgeStyle;rounded=0;orthogonalLoop=1;jettySize=auto;html=1;exitX=1;exitY=0.5;exitDx=0;exitDy=0;entryX=0;entryY=0.5;entryDx=0;entryDy=0;strokeColor=#A8201A;fontColor=#143642;fillColor=#FAE5C7;" edge="1" parent="1" source="_0MbpPXeVxMI2bIG-4Vy-56" target="_0MbpPXeVxMI2bIG-4Vy-59">
          <mxGeometry relative="1" as="geometry" />
        </mxCell>
        <mxCell id="_0MbpPXeVxMI2bIG-4Vy-144" style="edgeStyle=orthogonalEdgeStyle;rounded=0;orthogonalLoop=1;jettySize=auto;html=1;exitX=1;exitY=0.5;exitDx=0;exitDy=0;entryX=0;entryY=0.5;entryDx=0;entryDy=0;strokeColor=#A8201A;fontColor=#143642;fillColor=#FAE5C7;" edge="1" parent="1" source="_0MbpPXeVxMI2bIG-4Vy-59" target="_0MbpPXeVxMI2bIG-4Vy-63">
          <mxGeometry relative="1" as="geometry" />
        </mxCell>
        <mxCell id="_0MbpPXeVxMI2bIG-4Vy-146" style="edgeStyle=orthogonalEdgeStyle;rounded=0;orthogonalLoop=1;jettySize=auto;html=1;exitX=1;exitY=0.5;exitDx=0;exitDy=0;entryX=0;entryY=0.5;entryDx=0;entryDy=0;strokeColor=#A8201A;fontColor=#143642;fillColor=#FAE5C7;" edge="1" parent="1" source="_0MbpPXeVxMI2bIG-4Vy-50" target="_0MbpPXeVxMI2bIG-4Vy-53">
          <mxGeometry relative="1" as="geometry" />
        </mxCell>
        <mxCell id="_0MbpPXeVxMI2bIG-4Vy-147" style="edgeStyle=orthogonalEdgeStyle;rounded=0;orthogonalLoop=1;jettySize=auto;html=1;exitX=1;exitY=0.5;exitDx=0;exitDy=0;strokeColor=#A8201A;fontColor=#143642;fillColor=#FAE5C7;" edge="1" parent="1" target="_0MbpPXeVxMI2bIG-4Vy-74">
          <mxGeometry relative="1" as="geometry">
            <mxPoint x="178" y="329" as="sourcePoint" />
          </mxGeometry>
        </mxCell>
        <mxCell id="_0MbpPXeVxMI2bIG-4Vy-148" style="edgeStyle=orthogonalEdgeStyle;rounded=0;orthogonalLoop=1;jettySize=auto;html=1;exitX=1;exitY=0.5;exitDx=0;exitDy=0;strokeColor=#A8201A;fontColor=#143642;fillColor=#FAE5C7;" edge="1" parent="1" source="_0MbpPXeVxMI2bIG-4Vy-74" target="_0MbpPXeVxMI2bIG-4Vy-78">
          <mxGeometry relative="1" as="geometry" />
        </mxCell>
        <mxCell id="_0MbpPXeVxMI2bIG-4Vy-149" style="edgeStyle=orthogonalEdgeStyle;rounded=0;orthogonalLoop=1;jettySize=auto;html=1;exitX=1;exitY=0.5;exitDx=0;exitDy=0;entryX=0;entryY=0.5;entryDx=0;entryDy=0;strokeColor=#A8201A;fontColor=#143642;fillColor=#FAE5C7;" edge="1" parent="1" source="_0MbpPXeVxMI2bIG-4Vy-78" target="_0MbpPXeVxMI2bIG-4Vy-81">
          <mxGeometry relative="1" as="geometry" />
        </mxCell>
        <mxCell id="_0MbpPXeVxMI2bIG-4Vy-150" style="edgeStyle=orthogonalEdgeStyle;rounded=0;orthogonalLoop=1;jettySize=auto;html=1;exitX=1;exitY=0.5;exitDx=0;exitDy=0;entryX=0;entryY=0.5;entryDx=0;entryDy=0;strokeColor=#A8201A;fontColor=#143642;fillColor=#FAE5C7;" edge="1" parent="1" source="_0MbpPXeVxMI2bIG-4Vy-81">
          <mxGeometry relative="1" as="geometry">
            <mxPoint x="666" y="329" as="targetPoint" />
          </mxGeometry>
        </mxCell>
        <mxCell id="_0MbpPXeVxMI2bIG-4Vy-151" style="edgeStyle=orthogonalEdgeStyle;rounded=0;orthogonalLoop=1;jettySize=auto;html=1;exitX=1;exitY=0.5;exitDx=0;exitDy=0;entryX=0;entryY=0.5;entryDx=0;entryDy=0;strokeColor=#A8201A;fontColor=#143642;fillColor=#FAE5C7;" edge="1" parent="1" source="_0MbpPXeVxMI2bIG-4Vy-87" target="_0MbpPXeVxMI2bIG-4Vy-102">
          <mxGeometry relative="1" as="geometry" />
        </mxCell>
        <mxCell id="_0MbpPXeVxMI2bIG-4Vy-152" style="edgeStyle=orthogonalEdgeStyle;rounded=0;orthogonalLoop=1;jettySize=auto;html=1;exitX=1;exitY=0.5;exitDx=0;exitDy=0;entryX=0;entryY=0.5;entryDx=0;entryDy=0;strokeColor=#A8201A;fontColor=#143642;fillColor=#FAE5C7;" edge="1" parent="1" source="_0MbpPXeVxMI2bIG-4Vy-102" target="_0MbpPXeVxMI2bIG-4Vy-94">
          <mxGeometry relative="1" as="geometry" />
        </mxCell>
        <mxCell id="_0MbpPXeVxMI2bIG-4Vy-153" style="edgeStyle=orthogonalEdgeStyle;rounded=0;orthogonalLoop=1;jettySize=auto;html=1;exitX=1;exitY=0.5;exitDx=0;exitDy=0;strokeColor=#A8201A;fontColor=#143642;fillColor=#FAE5C7;" edge="1" parent="1" source="_0MbpPXeVxMI2bIG-4Vy-94" target="_0MbpPXeVxMI2bIG-4Vy-99">
          <mxGeometry relative="1" as="geometry" />
        </mxCell>
        <mxCell id="_0MbpPXeVxMI2bIG-4Vy-155" value="1.客户准入：" style="whiteSpace=wrap;html=1;shape=mxgraph.basic.document;" vertex="1" parent="1">
          <mxGeometry x="37" y="99" width="100" height="29" as="geometry" />
        </mxCell>
        <mxCell id="_0MbpPXeVxMI2bIG-4Vy-157" value="2.代采业务" style="whiteSpace=wrap;html=1;shape=mxgraph.basic.document;" vertex="1" parent="1">
          <mxGeometry x="37" y="237" width="100" height="29" as="geometry" />
        </mxCell>
        <mxCell id="_0MbpPXeVxMI2bIG-4Vy-158" value="3.回款提车" style="whiteSpace=wrap;html=1;shape=mxgraph.basic.document;" vertex="1" parent="1">
          <mxGeometry x="40" y="392" width="100" height="29" as="geometry" />
        </mxCell>
        <mxCell id="_0MbpPXeVxMI2bIG-4Vy-159" value="" style="group" vertex="1" connectable="0" parent="1">
          <mxGeometry x="83" y="162" width="534" height="42" as="geometry" />
        </mxCell>
        <mxCell id="_0MbpPXeVxMI2bIG-4Vy-138" style="edgeStyle=orthogonalEdgeStyle;rounded=0;orthogonalLoop=1;jettySize=auto;html=1;entryX=0;entryY=0.5;entryDx=0;entryDy=0;strokeColor=#A8201A;fontColor=#143642;fillColor=#FAE5C7;" edge="1" parent="_0MbpPXeVxMI2bIG-4Vy-159">
          <mxGeometry relative="1" as="geometry">
            <mxPoint x="236.5" y="21" as="sourcePoint" />
            <mxPoint x="294" y="21" as="targetPoint" />
          </mxGeometry>
        </mxCell>
        <mxCell id="_0MbpPXeVxMI2bIG-4Vy-130" style="edgeStyle=orthogonalEdgeStyle;rounded=0;orthogonalLoop=1;jettySize=auto;html=1;exitX=1;exitY=0.5;exitDx=0;exitDy=0;strokeColor=#A8201A;fontColor=#143642;fillColor=#FAE5C7;" edge="1" parent="_0MbpPXeVxMI2bIG-4Vy-159" source="_0MbpPXeVxMI2bIG-4Vy-37">
          <mxGeometry relative="1" as="geometry">
            <mxPoint x="145" y="21" as="targetPoint" />
          </mxGeometry>
        </mxCell>
        <mxCell id="_0MbpPXeVxMI2bIG-4Vy-37" value="" style="rounded=1;whiteSpace=wrap;html=1;align=center;verticalAlign=middle;labelPosition=center;verticalLabelPosition=middle;labelBackgroundColor=none;fillColor=#FAE5C7;strokeColor=#0F8B8D;fontColor=#143642;container=0;" vertex="1" parent="_0MbpPXeVxMI2bIG-4Vy-159">
          <mxGeometry width="94" height="42" as="geometry" />
        </mxCell>
        <mxCell id="_0MbpPXeVxMI2bIG-4Vy-38" value="注册邀请" style="text;strokeColor=none;align=center;fillColor=none;html=1;verticalAlign=middle;whiteSpace=wrap;rounded=1;fontSize=14;labelPosition=center;verticalLabelPosition=middle;labelBackgroundColor=none;fontColor=#143642;container=0;" vertex="1" parent="_0MbpPXeVxMI2bIG-4Vy-159">
          <mxGeometry x="14" y="8" width="60" height="30" as="geometry" />
        </mxCell>
        <mxCell id="_0MbpPXeVxMI2bIG-4Vy-40" value="" style="rounded=1;whiteSpace=wrap;html=1;align=center;verticalAlign=middle;labelPosition=center;verticalLabelPosition=middle;labelBackgroundColor=none;fillColor=#FAE5C7;strokeColor=#0F8B8D;fontColor=#143642;container=0;" vertex="1" parent="_0MbpPXeVxMI2bIG-4Vy-159">
          <mxGeometry x="143.5" width="94" height="42" as="geometry" />
        </mxCell>
        <mxCell id="_0MbpPXeVxMI2bIG-4Vy-41" value="&lt;font style=&quot;font-size: 11px;&quot;&gt;注册、提交企业认证资料&lt;/font&gt;" style="text;strokeColor=none;align=center;fillColor=none;html=1;verticalAlign=middle;whiteSpace=wrap;rounded=1;fontSize=14;labelPosition=center;verticalLabelPosition=middle;labelBackgroundColor=none;fontColor=#143642;container=0;" vertex="1" parent="_0MbpPXeVxMI2bIG-4Vy-159">
          <mxGeometry x="147.5" y="6" width="86" height="30" as="geometry" />
        </mxCell>
        <mxCell id="_0MbpPXeVxMI2bIG-4Vy-43" value="" style="rounded=1;whiteSpace=wrap;html=1;align=center;verticalAlign=middle;labelPosition=center;verticalLabelPosition=middle;container=0;labelBackgroundColor=none;fillColor=#FAE5C7;strokeColor=#0F8B8D;fontColor=#143642;" vertex="1" parent="_0MbpPXeVxMI2bIG-4Vy-159">
          <mxGeometry x="291" width="94" height="42" as="geometry" />
        </mxCell>
        <mxCell id="_0MbpPXeVxMI2bIG-4Vy-44" value="&lt;font style=&quot;font-size: 11px;&quot;&gt;提交企业尽调资料&lt;/font&gt;" style="text;strokeColor=none;align=center;fillColor=none;html=1;verticalAlign=middle;whiteSpace=wrap;rounded=1;fontSize=14;labelPosition=center;verticalLabelPosition=middle;container=0;labelBackgroundColor=none;fontColor=#143642;" vertex="1" parent="_0MbpPXeVxMI2bIG-4Vy-159">
          <mxGeometry x="306" y="0.5" width="63" height="41" as="geometry" />
        </mxCell>
        <mxCell id="_0MbpPXeVxMI2bIG-4Vy-47" value="" style="rounded=1;whiteSpace=wrap;html=1;align=center;verticalAlign=middle;labelPosition=center;verticalLabelPosition=middle;labelBackgroundColor=none;fillColor=#FAE5C7;strokeColor=#0F8B8D;fontColor=#143642;container=0;" vertex="1" parent="_0MbpPXeVxMI2bIG-4Vy-159">
          <mxGeometry x="440" width="94" height="42" as="geometry" />
        </mxCell>
        <mxCell id="_0MbpPXeVxMI2bIG-4Vy-128" style="edgeStyle=orthogonalEdgeStyle;rounded=0;orthogonalLoop=1;jettySize=auto;html=1;entryX=0;entryY=0.5;entryDx=0;entryDy=0;strokeColor=#A8201A;fontColor=#143642;fillColor=#FAE5C7;" edge="1" parent="_0MbpPXeVxMI2bIG-4Vy-159" source="_0MbpPXeVxMI2bIG-4Vy-43" target="_0MbpPXeVxMI2bIG-4Vy-47">
          <mxGeometry relative="1" as="geometry" />
        </mxCell>
        <mxCell id="_0MbpPXeVxMI2bIG-4Vy-48" value="授信额度" style="text;strokeColor=none;align=center;fillColor=none;html=1;verticalAlign=middle;whiteSpace=wrap;rounded=1;fontSize=14;labelPosition=center;verticalLabelPosition=middle;labelBackgroundColor=none;fontColor=#143642;container=0;" vertex="1" parent="_0MbpPXeVxMI2bIG-4Vy-159">
          <mxGeometry x="459" y="6" width="60" height="30" as="geometry" />
        </mxCell>
      </root>
    </mxGraphModel>
  </diagram>
</mxfile>
